<svg id="_0069_digital_content" xmlns="http://www.w3.org/2000/svg" viewBox="0 0 500 500" data-imageid="advertising-5-32" imageName="Advertising 5" class="illustrations_image" style="width: 166px;"><defs><style>.cls-1_advertising-5-32{fill:#e59383;}.cls-2_advertising-5-32{opacity:.45;}.cls-2_advertising-5-32,.cls-3_advertising-5-32,.cls-4_advertising-5-32,.cls-5_advertising-5-32,.cls-6_advertising-5-32,.cls-7_advertising-5-32,.cls-8_advertising-5-32,.cls-9_advertising-5-32,.cls-10_advertising-5-32,.cls-11_advertising-5-32,.cls-12_advertising-5-32{fill:none;}.cls-13_advertising-5-32{fill:#fff;}.cls-14_advertising-5-32{fill:#f4a28c;}.cls-3_advertising-5-32{opacity:.43;}.cls-4_advertising-5-32{opacity:.46;}.cls-15_advertising-5-32{fill:#a5a5a5;}.cls-5_advertising-5-32{opacity:.58;}.cls-6_advertising-5-32{opacity:.56;}.cls-7_advertising-5-32{opacity:.54;}.cls-16_advertising-5-32{fill:#ce8172;}.cls-17_advertising-5-32{fill:#e6e6e6;}.cls-8_advertising-5-32{opacity:.03;}.cls-9_advertising-5-32{opacity:.73;}.cls-10_advertising-5-32{opacity:.12;}.cls-11_advertising-5-32{opacity:.31;}.cls-18_advertising-5-32{fill:#24285b;}.cls-19_advertising-5-32{fill:#000001;}.cls-12_advertising-5-32{opacity:.34;}.cls-20_advertising-5-32{fill:#ffd200;}.cls-21_advertising-5-32{fill:#68e1fd;}</style></defs><g id="send_mail_advertising-5-32"><g class="cls-2_advertising-5-32"><path class="cls-17_advertising-5-32" d="m362.99,333.41c-1.22,0-2.2-.99-2.2-2.2s.99-2.2,2.2-2.2c.02,0,1.61,0,4.35-.13,1.2-.06,2.24.88,2.3,2.1.06,1.21-.88,2.24-2.1,2.3-2.85.13-4.48.13-4.55.13Zm22.04-1.77c-1.08,0-2.03-.8-2.18-1.9-.16-1.2.68-2.31,1.88-2.48,1.4-.19,2.84-.41,4.32-.64,1.19-.2,2.33.62,2.52,1.82.19,1.2-.63,2.33-1.83,2.52-1.51.24-2.98.46-4.41.66-.1.01-.2.02-.3.02Zm21.63-4.29c-.97,0-1.86-.65-2.13-1.64-.31-1.17.39-2.38,1.56-2.69,1.39-.37,2.78-.76,4.18-1.18,1.17-.35,2.39.32,2.74,1.48.35,1.17-.32,2.39-1.48,2.74-1.44.43-2.88.83-4.3,1.21-.19.05-.38.08-.57.08Zm20.74-7.38c-.83,0-1.62-.47-2-1.27-.51-1.1-.04-2.41,1.06-2.92,1.32-.62,2.63-1.26,3.87-1.91,1.08-.57,2.41-.15,2.97.93.56,1.08.15,2.41-.93,2.97-1.3.68-2.67,1.36-4.05,2-.3.14-.62.21-.93.21Zm18.53-11.77c-.61,0-1.22-.26-1.66-.75-.8-.92-.71-2.31.21-3.11,1.08-.94,2.12-1.92,3.08-2.9.85-.87,2.25-.88,3.11-.02.87.85.88,2.25.03,3.11-1.04,1.06-2.16,2.11-3.33,3.13-.42.36-.93.54-1.45.54Zm13.19-17.35c-.31,0-.62-.06-.91-.2-1.1-.51-1.59-1.81-1.09-2.92.58-1.26,1.1-2.57,1.55-3.88.4-1.15,1.65-1.76,2.8-1.36,1.15.4,1.76,1.65,1.36,2.8-.5,1.44-1.07,2.87-1.71,4.26-.37.81-1.17,1.29-2,1.29Zm4.43-21.32c-1.22,0-2.2-.98-2.2-2.2h0c0-1.4-.05-2.83-.15-4.24-.08-1.21.83-2.26,2.04-2.35,1.18-.09,2.26.83,2.35,2.04.11,1.52.16,3.05.16,4.54,0,1.22-.99,2.2-2.2,2.2Zm-3.35-21.67c-.96,0-1.84-.63-2.12-1.6-.4-1.4-.82-2.77-1.26-4.12-.38-1.15.25-2.4,1.4-2.78,1.15-.38,2.4.25,2.78,1.4.46,1.4.9,2.83,1.32,4.29.33,1.17-.35,2.39-1.52,2.72-.2.06-.4.08-.6.08Zm-361.45-7.14c-1.22,0-2.24-.99-2.24-2.2s.95-2.2,2.16-2.2c1.46,0,2.87-.04,4.29-.11,1.2-.08,2.25.87,2.31,2.08.06,1.21-.87,2.25-2.08,2.31-1.49.08-2.98.12-4.44.12Zm-17.51-2.07c-.17,0-.35-.02-.53-.07-1.47-.36-2.94-.78-4.37-1.24-1.16-.37-1.8-1.61-1.42-2.77.37-1.16,1.61-1.8,2.77-1.42,1.34.43,2.72.82,4.09,1.16,1.18.29,1.9,1.49,1.61,2.67-.25,1-1.15,1.67-2.14,1.67Zm39.22-.65c-.99,0-1.89-.68-2.14-1.68-.29-1.18.44-2.37,1.62-2.66,1.38-.33,2.77-.7,4.17-1.1,1.16-.34,2.39.35,2.72,1.51s-.35,2.39-1.51,2.72c-1.46.42-2.91.8-4.34,1.14-.17.04-.35.06-.52.06Zm20.79-7.13c-.85,0-1.66-.5-2.02-1.32-.48-1.12.03-2.41,1.14-2.9,1.33-.58,2.69-1.16,4.06-1.75,1.12-.48,2.41.04,2.89,1.16.48,1.12-.04,2.41-1.16,2.89-1.36.58-2.71,1.16-4.03,1.74-.29.12-.58.18-.88.18Zm-80.02-1.1c-.43,0-.86-.12-1.24-.38-1.26-.86-2.49-1.78-3.67-2.72-.95-.76-1.1-2.15-.34-3.09.76-.95,2.14-1.1,3.1-.34,1.09.87,2.23,1.72,3.4,2.52,1,.69,1.26,2.06.57,3.06-.43.62-1.12.96-1.82.96Zm390.67-2.23c-.77,0-1.52-.41-1.93-1.13-.69-1.25-1.43-2.49-2.18-3.69-.64-1.03-.33-2.39.7-3.03,1.03-.64,2.39-.33,3.03.7.79,1.26,1.56,2.57,2.3,3.89.59,1.06.21,2.4-.86,2.99-.34.19-.71.28-1.07.28Zm-290.33-5.13c-.87,0-1.7-.53-2.04-1.39-.45-1.13.1-2.41,1.23-2.86,1.36-.54,2.73-1.08,4.11-1.62,1.13-.44,2.41.11,2.85,1.25s-.11,2.41-1.25,2.85c-1.37.54-2.74,1.08-4.09,1.61-.27.11-.54.16-.81.16Zm20.57-7.86c-.9,0-1.74-.55-2.07-1.45-.42-1.14.17-2.41,1.31-2.82,1.38-.5,2.76-1,4.15-1.5,1.14-.41,2.4.18,2.82,1.33.41,1.14-.18,2.4-1.33,2.82-1.38.5-2.76,1-4.13,1.5-.25.09-.5.13-.76.13Zm-136.32-.31c-.71,0-1.4-.34-1.83-.97-.85-1.26-1.66-2.57-2.4-3.89-.6-1.06-.23-2.4.83-3,1.05-.6,2.4-.23,3,.83.69,1.22,1.44,2.43,2.23,3.6.68,1.01.41,2.38-.6,3.06-.38.25-.8.37-1.23.37Zm392.96-4.27c-.57,0-1.14-.22-1.57-.66-1-1.02-2.04-2.01-3.09-2.97-.9-.82-.96-2.21-.15-3.11.82-.9,2.21-.96,3.11-.15,1.11,1.01,2.21,2.06,3.26,3.14.85.87.84,2.26-.03,3.11-.43.42-.99.63-1.54.63Zm-235.86-2.68c-.92,0-1.78-.58-2.09-1.51-.38-1.15.24-2.4,1.39-2.78,1.39-.46,2.79-.92,4.19-1.38,1.16-.38,2.4.25,2.78,1.41.38,1.15-.25,2.4-1.41,2.77-1.4.46-2.79.91-4.17,1.37-.23.08-.46.11-.69.11Zm20.99-6.63c-.95,0-1.82-.62-2.11-1.57-.35-1.17.32-2.39,1.48-2.74,1.41-.42,2.82-.84,4.24-1.25,1.16-.34,2.39.33,2.73,1.5.34,1.17-.33,2.39-1.5,2.73-1.41.41-2.81.83-4.21,1.24-.21.06-.42.09-.63.09Zm197.54-4.15c-.38,0-.77-.1-1.12-.31-1.22-.72-2.48-1.43-3.75-2.1-1.07-.57-1.48-1.9-.91-2.98.57-1.08,1.91-1.48,2.97-.91,1.33.7,2.65,1.44,3.93,2.2,1.05.62,1.39,1.97.78,3.01-.41.7-1.14,1.08-1.9,1.08Zm-176.34-1.8c-.98,0-1.87-.65-2.13-1.64-.31-1.18.39-2.38,1.57-2.69,1.43-.37,2.86-.74,4.29-1.11,1.18-.3,2.38.41,2.68,1.59.3,1.18-.41,2.38-1.59,2.68-1.42.36-2.84.73-4.26,1.1-.19.05-.38.07-.56.07Zm-207.91-.58c-1.01,0-1.92-.7-2.15-1.72-.33-1.48-.61-2.99-.83-4.49-.17-1.2.66-2.32,1.86-2.5,1.2-.18,2.32.66,2.5,1.86.2,1.38.46,2.78.77,4.16.27,1.19-.48,2.36-1.67,2.63-.16.04-.32.05-.48.05Zm229.32-4.61c-1.01,0-1.92-.7-2.15-1.73-.26-1.19.49-2.36,1.67-2.62,1.44-.32,2.88-.63,4.32-.94,1.19-.25,2.36.51,2.61,1.7.25,1.19-.51,2.36-1.7,2.61-1.43.3-2.86.61-4.28.93-.16.04-.32.05-.48.05Zm134.91-2.03c-.23,0-.47-.04-.7-.11-1.36-.45-2.73-.89-4.12-1.3-1.17-.34-1.83-1.57-1.49-2.73.34-1.17,1.57-1.83,2.73-1.49,1.44.43,2.87.87,4.27,1.35,1.15.39,1.77,1.63,1.39,2.79-.31.92-1.17,1.5-2.09,1.5Zm-113.32-2.25c-1.05,0-1.98-.75-2.17-1.82-.21-1.2.59-2.34,1.79-2.55,1.45-.25,2.9-.5,4.35-.74,1.19-.19,2.33.61,2.53,1.81.2,1.2-.62,2.33-1.82,2.53-1.43.24-2.87.48-4.31.73-.13.02-.26.03-.38.03Zm91.97-2.98c-.12,0-.24,0-.37-.03-1.42-.24-2.85-.46-4.29-.66-1.2-.17-2.04-1.28-1.87-2.49.17-1.2,1.28-2.04,2.49-1.87,1.48.21,2.95.43,4.41.68,1.2.2,2.01,1.34,1.81,2.53-.18,1.08-1.11,1.84-2.17,1.84Zm-70.22-.24c-1.1,0-2.05-.82-2.18-1.94-.15-1.21.72-2.3,1.92-2.45,1.47-.18,2.94-.34,4.4-.5,1.2-.14,2.29.74,2.42,1.95.13,1.21-.74,2.29-1.95,2.42-1.45.16-2.9.32-4.35.5-.09.01-.18.02-.27.02Zm21.93-1.93c-1.16,0-2.13-.91-2.2-2.08-.07-1.21.87-2.25,2.08-2.32,1.48-.08,2.96-.15,4.43-.21,1.29-.03,2.24.9,2.29,2.11s-.9,2.24-2.12,2.28c-1.45.06-2.9.12-4.36.2-.04,0-.08,0-.12,0Zm26.41-.13s-.07,0-.11,0c-1.44-.07-2.9-.13-4.35-.17-1.22-.04-2.17-1.05-2.14-2.27.03-1.22,1.07-2.18,2.27-2.14,1.49.04,2.97.1,4.44.18,1.21.06,2.15,1.09,2.09,2.31-.06,1.18-1.03,2.09-2.2,2.09Zm-321.8-7.69c-.1,0-.21,0-.32-.02-1.2-.17-2.04-1.29-1.86-2.49.21-1.5.49-3.01.81-4.49.26-1.19,1.43-1.94,2.62-1.68,1.19.26,1.94,1.43,1.68,2.62-.3,1.37-.56,2.78-.76,4.17-.16,1.1-1.1,1.89-2.18,1.89Zm6.85-20.79c-.35,0-.7-.08-1.03-.26-1.07-.57-1.48-1.91-.91-2.98.7-1.32,1.47-2.64,2.27-3.94.64-1.03,2-1.35,3.03-.71,1.03.64,1.35,2,.71,3.03-.75,1.21-1.47,2.45-2.12,3.69-.4.74-1.16,1.17-1.94,1.17Zm13.24-17.47c-.57,0-1.14-.22-1.58-.67-.85-.87-.83-2.26.04-3.11,1.07-1.04,2.19-2.07,3.33-3.06.92-.8,2.31-.7,3.11.21.8.92.7,2.31-.22,3.11-1.08.94-2.14,1.91-3.15,2.9-.43.42-.98.62-1.54.62Zm17.6-13.11c-.76,0-1.51-.4-1.91-1.11-.6-1.06-.24-2.4.82-3,1.28-.73,2.6-1.45,3.95-2.14,1.08-.56,2.41-.13,2.96.95.56,1.08.13,2.41-.95,2.96-1.29.67-2.55,1.35-3.78,2.05-.34.2-.72.29-1.09.29Z"/></g><polygon class="cls-20_advertising-5-32" points="68.5 107.9 48.72 96.36 128.55 87.47 92.04 141.46 79.04 113.67 68.5 107.9"/><polygon class="cls-20_advertising-5-32" points="68.5 107.9 74.03 128.05 79.04 113.67 128.55 87.47 68.5 107.9"/><g class="cls-4_advertising-5-32"><polygon class="cls-13_advertising-5-32" points="68.5 107.9 74.03 128.05 79.04 113.67 128.55 87.47 68.5 107.9"/></g><polygon class="cls-18_advertising-5-32" points="74.03 128.05 82.84 121.78 79.04 113.67 74.03 128.05"/></g><g id="sd_advertising-5-32" class="cls-8_advertising-5-32"><ellipse class="cls-19_advertising-5-32" cx="249.79" cy="428.32" rx="208.74" ry="30.01"/></g><g id="plant_advertising-5-32"><g class="cls-5_advertising-5-32"><path class="cls-21_advertising-5-32 targetColor" d="m90.97,401.42s-18.85-5.15-22.96-22.7c0,0,29.21-5.9,30.05,24.25l-7.09-1.55Z" style="fill: rgb(44, 52, 253);"/></g><g class="cls-9_advertising-5-32"><path class="cls-21_advertising-5-32 targetColor" d="m93.28,399.55s-13.17-20.83-1.58-40.3c0,0,22.21,14.11,12.34,40.34l-10.76-.05Z" style="fill: rgb(44, 52, 253);"/></g><path class="cls-21_advertising-5-32 targetColor" d="m96.67,399.57s6.96-21.99,28-26.16c0,0,3.94,14.28-13.62,26.22l-14.38-.06Z" style="fill: rgb(44, 52, 253);"/><polygon class="cls-18_advertising-5-32" points="83 399.07 86.82 425.22 110.89 425.32 114.44 399.2 83 399.07"/></g><g id="phone_advertising-5-32"><rect class="cls-15_advertising-5-32" x="322.25" y="400.84" width="104.36" height="27.47"/><g class="cls-3_advertising-5-32"><rect class="cls-17_advertising-5-32" x="299.44" y="373.97" width="104.36" height="27.47"/></g><rect class="cls-17_advertising-5-32" x="145.01" y="57.78" width="206.61" height="370.54"/><rect class="cls-13_advertising-5-32" x="162.1" y="100.02" width="171.01" height="260.78"/><g class="cls-6_advertising-5-32"><circle class="cls-13_advertising-5-32" cx="248.94" cy="394.18" r="20.21"/></g><g class="cls-10_advertising-5-32"><rect class="cls-19_advertising-5-32" x="230.83" y="72.26" width="57.93" height="8.45"/></g><circle class="cls-13_advertising-5-32" cx="209.85" cy="77.4" r="9.43"/><rect class="cls-17_advertising-5-32" x="179.93" y="149.02" width="137.13" height="155.68"/><circle class="cls-15_advertising-5-32" cx="190.18" cy="126.67" r="10.24"/><g class="cls-10_advertising-5-32"><polygon class="cls-19_advertising-5-32" points="259.88 284.33 317.06 284.33 317.06 304.7 252.95 304.7 259.88 284.33"/></g><rect class="cls-17_advertising-5-32" x="208.27" y="118.8" width="29.82" height="5.27"/><g class="cls-6_advertising-5-32"><rect class="cls-17_advertising-5-32" x="208.27" y="129.29" width="29.82" height="5.27"/></g><path class="cls-15_advertising-5-32" d="m211.4,315.56c-1.5,0-2.88.48-4.09,1.41-1.16.9-1.94,2.05-2.39,2.88-.46-.83-1.23-1.98-2.39-2.88-1.21-.94-2.59-1.41-4.09-1.41-4.19,0-7.35,3.43-7.35,7.98,0,4.91,3.94,8.27,9.91,13.36,1.01.86,2.16,1.84,3.36,2.89.16.14.36.21.57.21s.41-.08.57-.21c1.19-1.04,2.34-2.02,3.36-2.89,5.97-5.09,9.91-8.45,9.91-13.36,0-4.55-3.16-7.98-7.35-7.98Z"/><rect class="cls-17_advertising-5-32" x="229.05" y="318.62" width="76.73" height="7.03"/><path class="cls-21_advertising-5-32 targetColor" d="m274.07,304.7c.68,0,28.74-53.04,28.74-53.04l-10.35-4.21-40.79,57.25h22.4Z" style="fill: rgb(44, 52, 253);"/><g class="cls-12_advertising-5-32"><rect class="cls-17_advertising-5-32" x="229.05" y="329.9" width="76.73" height="7.03"/></g><path class="cls-14_advertising-5-32" d="m227.46,183.5s3.56,10.47,3.51,18.03c-.02,3.07-2.56,5.57-5.63,5.51-3.81-.08-8.93-1.29-11.52-6.67l-5.52-8.59s-3.27-5.5,1.71-11.35c4.98-5.84,15.59-3.42,17.44,3.07Z"/><polygon class="cls-14_advertising-5-32" points="210.52 193.86 204.92 223.85 223.76 231.75 220.69 205.59 210.52 193.86"/><path class="cls-14_advertising-5-32" d="m229.37,190.21l4.01,3.4c.99.84.77,2.42-.41,2.96l-3.92,1.78.32-8.15Z"/><g class="cls-11_advertising-5-32"><path class="cls-16_advertising-5-32" d="m220.78,206.33s-4.13-1.19-6.13-3.84c0,0-2.17,7.63,7.01,11.33l-.88-7.49Z"/></g><path class="cls-18_advertising-5-32" d="m211.04,199.8s6.1,9.34,11.59,9.47c5.5.12,13.1-1.04,10.09-9.68-1.87-5.37-7.64-1.83-14.59,1.45,0,0-5.13-6.02-5.61-10.51,0,0,4.45-2.02,2.87-6.06,0,0,12.04,3.26,12.84-3.16.8-6.42-.47-9.67-5.97-10.53s-19.08,3.96-21.02,11.08c-1.94,7.12,9.8,17.93,9.8,17.93Z"/><path class="cls-14_advertising-5-32" d="m211.63,198.05c.01-1.84-.96-3.6-2.62-4.39-1.03-.49-2.28-.59-3.54.42-3.17,2.54,1.14,9.01,6.14,6.64l.02-2.67Z"/><path class="cls-1_advertising-5-32" d="m302.8,251.66s7.66-15.93-1.6-19.92c-9.26-3.98-6.54,16.16-6.54,16.16l8.15,3.76Z"/><path class="cls-21_advertising-5-32 targetColor" d="m179.93,222.78s38.47-3.17,63.36,13.58c24.89,16.74,15.39,68.34,15.39,68.34h-78.75v-81.91Z" style="fill: rgb(44, 52, 253);"/><g class="cls-10_advertising-5-32"><path class="cls-19_advertising-5-32" d="m196.07,227.88s18.25,7.35,19.38,27.94c1.13,20.59,5,41.64,24,41.64s60.9-46.31,60.9-46.31l2.45.52-28.74,53.04h-51.59s-33.79.47-26.4-76.82Z"/></g><polygon class="cls-21_advertising-5-32 targetColor" points="234.28 294.59 283.06 251.14 292.72 261.7 258.93 304.7 222.47 304.7 234.28 294.59" style="fill: rgb(44, 52, 253);"/><g class="cls-4_advertising-5-32"><polygon class="cls-13_advertising-5-32" points="234.28 294.59 283.06 251.14 292.72 261.7 258.93 304.7 222.47 304.7 234.28 294.59"/></g><path class="cls-14_advertising-5-32" d="m284.56,252.78s3.96-8.93,8.16-9.73,15.48,5.75-1.25,17.29l-6.91-7.56Z"/><path class="cls-13_advertising-5-32" d="m198.96,223s2.06-7.57,12.67-5.87,17.21,2.43,17.42,12.08l-30.09-6.21Z"/><path class="cls-20_advertising-5-32" d="m296.73,234.76l-3.09.13-.08-1.81,3.09-.13c1.87-.08,3.33-1.67,3.24-3.54-.08-1.87-1.67-3.33-3.54-3.24l-3.09.13-.08-1.81,3.09-.13c2.87-.12,5.3,2.11,5.42,4.97.12,2.87-2.11,5.3-4.97,5.42Z"/><g class="cls-4_advertising-5-32"><path class="cls-13_advertising-5-32" d="m296.73,234.76l-3.09.13-.08-1.81,3.09-.13c1.87-.08,3.33-1.67,3.24-3.54-.08-1.87-1.67-3.33-3.54-3.24l-3.09.13-.08-1.81,3.09-.13c2.87-.12,5.3,2.11,5.42,4.97.12,2.87-2.11,5.3-4.97,5.42Z"/></g><polygon class="cls-20_advertising-5-32" points="294.19 237.01 283.33 237.48 279.37 220.89 296.1 220.17 294.19 237.01"/><polygon class="cls-20_advertising-5-32" points="276.21 237.48 302.8 237.48 298.16 243.05 281.31 243.05 276.21 237.48"/><g class="cls-11_advertising-5-32"><polygon class="cls-16_advertising-5-32" points="276.21 237.48 302.8 237.48 298.16 243.05 281.31 243.05 276.21 237.48"/></g><g class="cls-7_advertising-5-32"><path class="cls-13_advertising-5-32" d="m294.29,220.25s5.47-9.8-1.83-12.51c-7.3-2.72-11.83,5.24-14.66-5.24-2.83-10.48-8.26-13.77-18.44-11.16-10.18,2.6-.79,15.67-12.22,16.83-11.43,1.16-9.13,18.13.47,17.79,9.6-.34,16.84-18.37,20.69-12.13,3.85,6.24,12.56,7.01,12.56,7.01l13.43-.58Z"/></g><path class="cls-21_advertising-5-32 targetColor" d="m179.93,222.78s21.27-2.72,23.31,21.95c2.04,24.66-5.88,52.5,19.23,59.96h-42.54v-81.91Z" style="fill: rgb(44, 52, 253);"/><g class="cls-4_advertising-5-32"><path class="cls-13_advertising-5-32" d="m179.93,222.78s21.27-2.72,23.31,21.95c2.04,24.66-5.88,52.5,19.23,59.96h-42.54v-81.91Z"/></g><g class="cls-10_advertising-5-32"><rect class="cls-19_advertising-5-32" x="310.09" y="117.27" width="41.53" height="14.65"/></g></g><g id="notif_advertising-5-32"><rect class="cls-18_advertising-5-32" x="297.14" y="41.67" width="126.61" height="75.28"/><path class="cls-21_advertising-5-32 targetColor" d="m343.53,64.93c-2.04,0-3.9.65-5.55,1.92-1.58,1.22-2.63,2.78-3.25,3.91-.62-1.13-1.67-2.69-3.25-3.91-1.65-1.27-3.51-1.92-5.55-1.92-5.68,0-9.97,4.65-9.97,10.82,0,6.66,5.35,11.22,13.45,18.12,1.37,1.17,2.93,2.5,4.55,3.92.21.19.49.29.77.29s.56-.1.77-.29c1.62-1.42,3.18-2.74,4.55-3.92,8.1-6.9,13.44-11.46,13.44-18.12,0-6.17-4.29-10.82-9.97-10.82Z" style="fill: rgb(44, 52, 253);"/><path class="cls-13_advertising-5-32" d="m368.84,86.69c.36,1.91,1.58,3,3.73,3,2.71,0,3.89-2.01,3.89-7.43-1.02,1.42-2.97,2.24-5.08,2.24-4.16,0-7.49-2.61-7.49-7.69,0-4.82,3.04-7.99,8.12-7.99,6.53,0,8.55,4.42,8.55,12.04,0,8.19-1.82,12.61-8.18,12.61-5.12,0-7.56-3.27-7.82-6.8h4.29Zm7.19-9.84c0-2.64-1.52-4.09-3.86-4.09s-3.86,1.62-3.86,4.03c0,2.18,1.22,3.96,4.03,3.96,2.31,0,3.7-1.55,3.7-3.9Z"/><path class="cls-13_advertising-5-32" d="m389.49,86.69c.36,1.91,1.58,3,3.73,3,2.71,0,3.89-2.01,3.89-7.43-1.02,1.42-2.97,2.24-5.08,2.24-4.16,0-7.49-2.61-7.49-7.69,0-4.82,3.04-7.99,8.12-7.99,6.53,0,8.55,4.42,8.55,12.04,0,8.19-1.82,12.61-8.18,12.61-5.12,0-7.56-3.27-7.82-6.8h4.29Zm7.19-9.84c0-2.64-1.52-4.09-3.86-4.09s-3.86,1.62-3.86,4.03c0,2.18,1.22,3.96,4.03,3.96,2.31,0,3.7-1.55,3.7-3.9Z"/></g></svg>