<svg id="_0530_search_engine" data-name="0530_search_engine" xmlns="http://www.w3.org/2000/svg" viewBox="0 0 500 500" data-imageid="search-engine-1-19" imageName="Search Engine 1" class="illustrations_image" style="width: 166px;"><defs><style>.cls-1_search-engine-1-19{fill:#fff;}.cls-2_search-engine-1-19{fill:#093f68;}.cls-3_search-engine-1-19{fill:#68e1fd;}.cls-4_search-engine-1-19{fill:#dfeaef;}.cls-5_search-engine-1-19{fill:#ffbc0e;}.cls-6_search-engine-1-19{fill:#70cc40;}.cls-7_search-engine-1-19{fill:#f56132;}</style></defs><g id="screen_search-engine-1-19"><rect class="cls-1_search-engine-1-19" x="24.15" y="102.02" width="451.7" height="295.97"/><path class="cls-2_search-engine-1-19" d="M475.85,399.82H24.15A1.83,1.83,0,0,1,22.32,398V102a1.83,1.83,0,0,1,1.83-1.83h451.7a1.83,1.83,0,0,1,1.83,1.83V398A1.83,1.83,0,0,1,475.85,399.82ZM26,396.15H474V103.85H26Z"/><rect class="cls-3_search-engine-1-19 targetColor" x="24.15" y="102.02" width="451.7" height="36.65" style="fill: rgb(44, 52, 253);"/><path class="cls-2_search-engine-1-19" d="M475.85,140.5H24.15a1.83,1.83,0,0,1-1.83-1.83V102a1.83,1.83,0,0,1,1.83-1.83h451.7a1.83,1.83,0,0,1,1.83,1.83v36.65A1.83,1.83,0,0,1,475.85,140.5ZM26,136.83H474v-33H26Z"/><path class="cls-1_search-engine-1-19" d="M189.32,120.07v-8.84A9.21,9.21,0,0,0,180.1,102H102.22A9.21,9.21,0,0,0,93,111.23v8.84a6.26,6.26,0,0,1-6.26,6.26H24.15v37.41h451.7V126.33H195.58A6.26,6.26,0,0,1,189.32,120.07Z"/><path class="cls-2_search-engine-1-19" d="M475.85,165.57H24.15a1.83,1.83,0,0,1-1.83-1.83V126.33a1.83,1.83,0,0,1,1.83-1.83h62.6a4.44,4.44,0,0,0,4.43-4.43v-8.84a11.06,11.06,0,0,1,11-11H180.1a11.07,11.07,0,0,1,11.05,11v8.84a4.43,4.43,0,0,0,4.43,4.43H475.85a1.83,1.83,0,0,1,1.83,1.83v37.41A1.83,1.83,0,0,1,475.85,165.57ZM26,161.91H474V128.16H195.58a8.1,8.1,0,0,1-8.1-8.09v-8.84a7.39,7.39,0,0,0-7.38-7.38H102.22a7.39,7.39,0,0,0-7.38,7.38v8.84a8.1,8.1,0,0,1-8.09,8.09H26Z"/><path class="cls-4_search-engine-1-19" d="M74,146.07H62.68a1.83,1.83,0,0,1,0-3.66H74a1.83,1.83,0,1,1,0,3.66Z"/><path class="cls-4_search-engine-1-19" d="M70.44,152A1.83,1.83,0,0,1,69.1,149l4.37-4.68L69.15,140a1.83,1.83,0,0,1,2.59-2.59l5.57,5.57a1.83,1.83,0,0,1,0,2.55l-5.57,6A1.85,1.85,0,0,1,70.44,152Z"/><path class="cls-4_search-engine-1-19" d="M393.26,156H99a10.18,10.18,0,0,1-10.17-10.17v-1.69A10.18,10.18,0,0,1,99,134h294.3a10.18,10.18,0,0,1,10.17,10.16v1.69A10.18,10.18,0,0,1,393.26,156ZM99,137.66a6.51,6.51,0,0,0-6.51,6.5v1.69A6.52,6.52,0,0,0,99,152.36h294.3a6.52,6.52,0,0,0,6.51-6.51v-1.69a6.51,6.51,0,0,0-6.51-6.5Z"/><circle class="cls-5_search-engine-1-19" cx="56.49" cy="114.72" r="5.11"/><path class="cls-2_search-engine-1-19" d="M56.49,121.66a6.94,6.94,0,1,1,6.93-6.94A6.94,6.94,0,0,1,56.49,121.66Zm0-10.21a3.28,3.28,0,1,0,3.27,3.27A3.28,3.28,0,0,0,56.49,111.45Z"/><circle class="cls-6_search-engine-1-19" cx="72.56" cy="114.72" r="5.11"/><path class="cls-2_search-engine-1-19" d="M72.56,121.66a6.94,6.94,0,1,1,6.94-6.94A6.94,6.94,0,0,1,72.56,121.66Zm0-10.21a3.28,3.28,0,1,0,3.27,3.27A3.28,3.28,0,0,0,72.56,111.45Z"/><path class="cls-4_search-engine-1-19" d="M462.29,139.12H441.4a1.83,1.83,0,1,1,0-3.66h20.89a1.83,1.83,0,0,1,0,3.66Z"/><path class="cls-4_search-engine-1-19" d="M462.29,145.94H441.4a1.84,1.84,0,1,1,0-3.67h20.89a1.84,1.84,0,0,1,0,3.67Z"/><path class="cls-4_search-engine-1-19" d="M462.29,152.75H441.4a1.83,1.83,0,1,1,0-3.66h20.89a1.83,1.83,0,0,1,0,3.66Z"/><circle class="cls-7_search-engine-1-19" cx="40.41" cy="114.72" r="5.11"/><path class="cls-2_search-engine-1-19" d="M40.41,121.66a6.94,6.94,0,1,1,6.94-6.94A7,7,0,0,1,40.41,121.66Zm0-10.21a3.28,3.28,0,1,0,3.28,3.27A3.28,3.28,0,0,0,40.41,111.45Z"/><path class="cls-4_search-engine-1-19" d="M48.64,146.07H37.29a1.83,1.83,0,0,1,0-3.66H48.64a1.83,1.83,0,0,1,0,3.66Z"/><path class="cls-4_search-engine-1-19" d="M40.88,152a1.85,1.85,0,0,1-1.34-.58l-5.58-6a1.84,1.84,0,0,1,0-2.55l5.57-5.57A1.83,1.83,0,0,1,42.17,140l-4.32,4.32L42.22,149A1.83,1.83,0,0,1,40.88,152Z"/></g><g id="search_search-engine-1-19"><path class="cls-3_search-engine-1-19 targetColor" d="M408.39,308.59a28.63,28.63,0,0,1-28.65,28.66H120.26a28.66,28.66,0,0,1,0-57.31H379.74A28.65,28.65,0,0,1,408.39,308.59Z" style="fill: rgb(44, 52, 253);"/><path class="cls-2_search-engine-1-19" d="M379.74,339.09H120.26a30.49,30.49,0,0,1,0-61H379.74a30.49,30.49,0,0,1,0,61ZM120.26,281.77a26.83,26.83,0,0,0,0,53.65H379.74a26.83,26.83,0,0,0,0-53.65Z"/><path class="cls-1_search-engine-1-19" d="M408.39,308.59a28.63,28.63,0,0,1-28.65,28.66H347.91V279.94h31.83A28.65,28.65,0,0,1,408.39,308.59Z"/><path class="cls-2_search-engine-1-19" d="M379.74,339.09H347.91a1.82,1.82,0,0,1-1.83-1.83V279.94a1.82,1.82,0,0,1,1.83-1.83h31.83a30.49,30.49,0,0,1,0,61Zm-30-3.67h30a26.83,26.83,0,0,0,0-53.65h-30Z"/><path class="cls-2_search-engine-1-19" d="M370.91,314.27a12,12,0,1,1,12-12A12,12,0,0,1,370.91,314.27Zm0-20.3a8.32,8.32,0,1,0,8.31,8.31A8.32,8.32,0,0,0,370.91,294Z"/><path class="cls-2_search-engine-1-19" d="M388.36,323.57A1.81,1.81,0,0,1,387,323l-9.9-10.32a1.83,1.83,0,1,1,2.64-2.53l9.9,10.32a1.83,1.83,0,0,1-1.32,3.1Z"/><path class="cls-2_search-engine-1-19" d="M177.85,222.47a7.07,7.07,0,0,0-3.3-2.28,11.79,11.79,0,0,0-3.94-.73,10.39,10.39,0,0,0-2.24.25,8.62,8.62,0,0,0-2.18.8,4.77,4.77,0,0,0-1.66,1.45,4,4,0,0,0,.89,5.31,14.45,14.45,0,0,0,3.88,1.86c1.56.51,3.24,1,5,1.54a20.7,20.7,0,0,1,5,2.18,12,12,0,0,1,3.88,3.78,11.55,11.55,0,0,1,1.53,6.34,14.58,14.58,0,0,1-1.41,6.6,13.42,13.42,0,0,1-3.81,4.68A16.05,16.05,0,0,1,174,257a25.59,25.59,0,0,1-14.9-.44A20.59,20.59,0,0,1,152,252.2l7.12-7.82a10.21,10.21,0,0,0,3.87,3.17,11,11,0,0,0,4.84,1.12,11.14,11.14,0,0,0,2.47-.28,8.23,8.23,0,0,0,2.24-.87,4.81,4.81,0,0,0,1.6-1.47,3.67,3.67,0,0,0,.61-2.12,3.83,3.83,0,0,0-1.57-3.23,14.38,14.38,0,0,0-3.94-2c-1.58-.56-3.29-1.11-5.13-1.67a22.64,22.64,0,0,1-5.12-2.24,12.28,12.28,0,0,1-3.94-3.72,10.57,10.57,0,0,1-1.57-6.08,13.65,13.65,0,0,1,1.44-6.41,13.87,13.87,0,0,1,3.84-4.61,16.66,16.66,0,0,1,5.55-2.79,22.65,22.65,0,0,1,6.47-.93,25.31,25.31,0,0,1,7.43,1.09,17.16,17.16,0,0,1,6.47,3.65Z"/><path class="cls-2_search-engine-1-19" d="M220.46,251.37a15.42,15.42,0,0,1-5.83,4.55,17.57,17.57,0,0,1-7.3,1.6,19.6,19.6,0,0,1-6.76-1.16,16.1,16.1,0,0,1-5.51-3.3,15.57,15.57,0,0,1-3.69-5.15,17.57,17.57,0,0,1,0-13.46,15.51,15.51,0,0,1,3.69-5.16,16.26,16.26,0,0,1,5.51-3.3,19.59,19.59,0,0,1,6.76-1.15,15.32,15.32,0,0,1,6,1.15,12.62,12.62,0,0,1,4.62,3.3,14.94,14.94,0,0,1,2.91,5.16,20.89,20.89,0,0,1,1,6.73v3h-22.3a7.59,7.59,0,0,0,2.5,4.39,7.06,7.06,0,0,0,4.74,1.63,7.14,7.14,0,0,0,4-1.06,10.65,10.65,0,0,0,2.85-2.72Zm-8.13-13.72a5.57,5.57,0,0,0-1.61-4.16,5.7,5.7,0,0,0-4.29-1.73,7.24,7.24,0,0,0-2.82.51,7.16,7.16,0,0,0-2.08,1.31,5.84,5.84,0,0,0-1.35,1.86,6.13,6.13,0,0,0-.54,2.21Z"/><path class="cls-2_search-engine-1-19" d="M247.31,252.84h-.13a9.12,9.12,0,0,1-4.26,3.59,14.75,14.75,0,0,1-5.61,1.09,14.59,14.59,0,0,1-4.19-.61,10.73,10.73,0,0,1-3.56-1.83,8.74,8.74,0,0,1-2.44-3,9.3,9.3,0,0,1-.89-4.16,9.56,9.56,0,0,1,1-4.55,8.87,8.87,0,0,1,2.69-3.08,13.47,13.47,0,0,1,3.88-1.89,27.71,27.71,0,0,1,4.52-1A43.24,43.24,0,0,1,243,237c1.56,0,3-.06,4.33-.06a5,5,0,0,0-1.83-4.07,6.6,6.6,0,0,0-4.32-1.5,9.45,9.45,0,0,0-4.33,1,11.91,11.91,0,0,0-3.49,2.72l-5.13-5.25a17.61,17.61,0,0,1,6.28-3.75,22.57,22.57,0,0,1,7.44-1.25,19.31,19.31,0,0,1,6.95,1.06,10.07,10.07,0,0,1,4.35,3.1,12.06,12.06,0,0,1,2.28,5,32.9,32.9,0,0,1,.64,6.89v15.83h-8.84Zm-2.37-9.74c-.73,0-1.64,0-2.73.1a13.67,13.67,0,0,0-3.14.54,7,7,0,0,0-2.56,1.35,3.1,3.1,0,0,0-1,2.5,2.75,2.75,0,0,0,1.47,2.56A6.21,6.21,0,0,0,240,251a9.94,9.94,0,0,0,2.73-.38,8.39,8.39,0,0,0,2.34-1.09,5.32,5.32,0,0,0,1.63-1.8,5.21,5.21,0,0,0,.61-2.56V243.1Z"/><path class="cls-2_search-engine-1-19" d="M262.17,225.61h9.61v5h.13a11.8,11.8,0,0,1,3.65-4.33,9.26,9.26,0,0,1,5.32-1.44c.56,0,1.11,0,1.67.06a8.83,8.83,0,0,1,1.54.26v8.78a13.1,13.1,0,0,0-2-.48,12.75,12.75,0,0,0-2.09-.16,10.09,10.09,0,0,0-4.35.77,5.76,5.76,0,0,0-2.47,2.14,8.26,8.26,0,0,0-1.12,3.3,32.22,32.22,0,0,0-.26,4.23v13h-9.61Z"/><path class="cls-2_search-engine-1-19" d="M308.18,235.67a5.31,5.31,0,0,0-2-1.7,5.79,5.79,0,0,0-2.75-.67,7.3,7.3,0,0,0-5.67,2.18,9.05,9.05,0,0,0,0,11.4,7.34,7.34,0,0,0,5.67,2.18,5.19,5.19,0,0,0,2.75-.71,8.49,8.49,0,0,0,2-1.66l6.34,6.66a12.23,12.23,0,0,1-5.29,3.24,19.78,19.78,0,0,1-5.79.93,19.55,19.55,0,0,1-6.76-1.16,16.1,16.1,0,0,1-5.51-3.3,15.57,15.57,0,0,1-3.69-5.15,17.57,17.57,0,0,1,0-13.46,15.51,15.51,0,0,1,3.69-5.16,16.26,16.26,0,0,1,5.51-3.3,19.55,19.55,0,0,1,6.76-1.15,19.78,19.78,0,0,1,5.79.93,12.3,12.3,0,0,1,5.29,3.23Z"/><path class="cls-2_search-engine-1-19" d="M327.59,208.31v21.53h.13a5.78,5.78,0,0,1,1.09-1.8,8.6,8.6,0,0,1,1.86-1.6,10.06,10.06,0,0,1,2.56-1.15,10.9,10.9,0,0,1,3.2-.45,13.23,13.23,0,0,1,5.9,1.12,8.51,8.51,0,0,1,3.49,3.11,12.59,12.59,0,0,1,1.7,4.68,35.3,35.3,0,0,1,.45,5.83v17.17h-9.61V241.5c0-.9,0-1.83-.1-2.79a8.69,8.69,0,0,0-.58-2.66,4.57,4.57,0,0,0-1.47-2,4.52,4.52,0,0,0-2.85-.77,5.91,5.91,0,0,0-3,.67,4.58,4.58,0,0,0-1.76,1.79,7.37,7.37,0,0,0-.81,2.53,23.34,23.34,0,0,0-.19,3v15.51H318V208.31Z"/></g></svg>